<svg xmlns="http://www.w3.org/2000/svg" width="36" height="28" viewBox="0 0 36 28" fill="none">
  <g clip-path="url(#clip0_869_12714)">
    <path d="M29.9311 2.91979C27.6901 1.87065 25.3193 1.12519 22.8813 0.703125C22.5777 1.25245 22.2229 1.9913 21.9782 2.57909C19.3496 2.18358 16.7452 2.18358 14.165 2.57909C13.9204 1.99143 13.5576 1.25245 13.2511 0.703125C10.8108 1.12538 8.43791 1.87273 6.19584 2.92527C1.73428 9.67117 0.524781 16.2493 1.12946 22.7344C4.08867 24.9454 6.95643 26.2886 9.77588 27.1676C10.4766 26.2035 11.096 25.1827 11.6277 24.1159C10.6154 23.7303 9.63949 23.2551 8.71161 22.6959C8.95578 22.5148 9.19421 22.3261 9.42655 22.13C15.0492 24.7614 21.1585 24.7614 26.7141 22.13C26.9474 22.3248 27.1858 22.5135 27.4289 22.6959C26.4995 23.2566 25.5218 23.7328 24.5074 24.1187C25.0422 25.1899 25.6605 26.2116 26.3593 27.1703C29.1814 26.2915 32.0518 24.9483 35.011 22.7344C35.7206 15.2167 33.799 8.69887 29.9311 2.91979ZM12.3938 18.7462C10.7059 18.7462 9.32164 17.1695 9.32164 15.2496C9.32164 13.3297 10.6764 11.7504 12.3938 11.7504C14.1112 11.7504 15.4954 13.3269 15.4659 15.2496C15.4686 17.1695 14.1113 18.7462 12.3938 18.7462ZM23.7467 18.7462C22.0588 18.7462 20.6747 17.1695 20.6747 15.2496C20.6747 13.3297 22.0293 11.7504 23.7467 11.7504C25.4642 11.7504 26.8483 13.3269 26.8188 15.2496C26.8188 17.1695 25.4642 18.7462 23.7467 18.7462Z" fill="white"/>
  </g>
  <defs>
    <clipPath id="clip0_869_12714">
      <rect width="34.1719" height="26.5781" fill="white" transform="translate(0.984375 0.703125)"/>
    </clipPath>
  </defs>
</svg>